<svg xmlns="http://www.w3.org/2000/svg" xmlns:xlink="http://www.w3.org/1999/xlink" width="500" zoomAndPan="magnify" viewBox="0 0 375 374.999991" height="500" preserveAspectRatio="xMidYMid meet" version="1.0"><defs><clipPath id="acf068ac19"><path d="M 138 126 L 148.5 126 L 148.5 128 L 138 128 Z M 138 126 " clip-rule="nonzero"/></clipPath><clipPath id="0de15932b6"><path d="M 138 127 L 148.5 127 L 148.5 129 L 138 129 Z M 138 127 " clip-rule="nonzero"/></clipPath><clipPath id="7db4814741"><path d="M 126 112.605469 L 135 112.605469 L 135 114 L 126 114 Z M 126 112.605469 " clip-rule="nonzero"/></clipPath><clipPath id="3f49407fcf"><path d="M 138 128 L 148.5 128 L 148.5 130 L 138 130 Z M 138 128 " clip-rule="nonzero"/></clipPath><clipPath id="1921a4527b"><path d="M 138 129 L 148.5 129 L 148.5 131 L 138 131 Z M 138 129 " clip-rule="nonzero"/></clipPath><clipPath id="932e766ded"><path d="M 112.5 126 L 125 126 L 125 128 L 112.5 128 Z M 112.5 126 " clip-rule="nonzero"/></clipPath><clipPath id="b209a77335"><path d="M 126 148 L 135 148 L 135 148.605469 L 126 148.605469 Z M 126 148 " clip-rule="nonzero"/></clipPath><clipPath id="9514340d38"><path d="M 138 134 L 148.5 134 L 148.5 135 L 138 135 Z M 138 134 " clip-rule="nonzero"/></clipPath><clipPath id="7e1fce02a2"><path d="M 138 131 L 148.5 131 L 148.5 133 L 138 133 Z M 138 131 " clip-rule="nonzero"/></clipPath><clipPath id="a589312356"><path d="M 138 130 L 148.5 130 L 148.5 132 L 138 132 Z M 138 130 " clip-rule="nonzero"/></clipPath><clipPath id="0c94a27a78"><path d="M 138 133 L 148.5 133 L 148.5 134 L 138 134 Z M 138 133 " clip-rule="nonzero"/></clipPath><clipPath id="1b985d98f0"><path d="M 112.5 131 L 125 131 L 125 133 L 112.5 133 Z M 112.5 131 " clip-rule="nonzero"/></clipPath><clipPath id="0f725f2dba"><path d="M 112.5 127 L 125 127 L 125 129 L 112.5 129 Z M 112.5 127 " clip-rule="nonzero"/></clipPath><clipPath id="20e7a0e9e3"><path d="M 112.5 130 L 125 130 L 125 132 L 112.5 132 Z M 112.5 130 " clip-rule="nonzero"/></clipPath><clipPath id="3f3a3953c0"><path d="M 112.5 128 L 125 128 L 125 130 L 112.5 130 Z M 112.5 128 " clip-rule="nonzero"/></clipPath><clipPath id="4c9a3c2a98"><path d="M 112.5 129 L 125 129 L 125 131 L 112.5 131 Z M 112.5 129 " clip-rule="nonzero"/></clipPath><clipPath id="79a2c0dcda"><path d="M 112.5 133 L 125 133 L 125 134 L 112.5 134 Z M 112.5 133 " clip-rule="nonzero"/></clipPath><clipPath id="25cc65b3b9"><path d="M 112.5 134 L 125 134 L 125 135 L 112.5 135 Z M 112.5 134 " clip-rule="nonzero"/></clipPath></defs><path fill="#db3d44" d="M 138.375 121.664062 L 146.121094 121.664062 C 146.03125 121.511719 145.941406 121.359375 145.851562 121.210938 L 138.375 121.210938 L 138.375 121.664062 " fill-opacity="1" fill-rule="nonzero"/><path fill="#db3d44" d="M 138.375 119.507812 L 144.667969 119.507812 C 144.546875 119.355469 144.425781 119.203125 144.296875 119.054688 L 138.375 119.054688 L 138.375 119.507812 " fill-opacity="1" fill-rule="nonzero"/><path fill="#db3d44" d="M 138.375 120.585938 L 145.449219 120.585938 C 145.347656 120.433594 145.242188 120.28125 145.132812 120.132812 L 138.375 120.132812 L 138.375 120.585938 " fill-opacity="1" fill-rule="nonzero"/><path fill="#db3d44" d="M 138.375 122.609375 L 138.375 122.742188 L 146.691406 122.742188 C 146.617188 122.589844 146.539062 122.4375 146.460938 122.289062 L 138.375 122.289062 L 138.375 122.609375 " fill-opacity="1" fill-rule="nonzero"/><g clip-path="url(#acf068ac19)"><path fill="#db3d44" d="M 138.375 127.054688 L 148.148438 127.054688 C 148.117188 126.902344 148.085938 126.753906 148.050781 126.601562 L 138.375 126.601562 L 138.375 127.054688 " fill-opacity="1" fill-rule="nonzero"/></g><path fill="#db3d44" d="M 138.375 123.820312 L 147.171875 123.820312 C 147.109375 123.667969 147.046875 123.519531 146.980469 123.367188 L 138.375 123.367188 L 138.375 123.820312 " fill-opacity="1" fill-rule="nonzero"/><path fill="#db3d44" d="M 138.375 125.976562 L 147.894531 125.976562 C 147.855469 125.824219 147.8125 125.671875 147.769531 125.523438 L 138.375 125.523438 L 138.375 125.976562 " fill-opacity="1" fill-rule="nonzero"/><g clip-path="url(#0de15932b6)"><path fill="#db3d44" d="M 138.375 128.132812 L 148.332031 128.132812 C 148.308594 127.980469 148.289062 127.828125 148.261719 127.679688 L 138.375 127.679688 L 138.375 128.132812 " fill-opacity="1" fill-rule="nonzero"/></g><path fill="#db3d44" d="M 138.375 124.898438 L 147.574219 124.898438 C 147.523438 124.746094 147.46875 124.59375 147.414062 124.445312 L 138.375 124.445312 L 138.375 124.898438 " fill-opacity="1" fill-rule="nonzero"/><path fill="#db3d44" d="M 137.429688 117.976562 L 117.679688 117.976562 C 117.535156 118.125 117.390625 118.277344 117.25 118.429688 L 136.289062 118.429688 L 137.429688 117.976562 " fill-opacity="1" fill-rule="nonzero"/><path fill="#db3d44" d="M 138.375 118.429688 L 143.75 118.429688 C 143.609375 118.277344 143.464844 118.125 143.320312 117.976562 L 138.375 117.976562 L 138.375 118.429688 " fill-opacity="1" fill-rule="nonzero"/><path fill="#db3d44" d="M 134.714844 119.054688 L 116.703125 119.054688 C 116.578125 119.203125 116.453125 119.355469 116.332031 119.507812 L 133.574219 119.507812 L 134.714844 119.054688 " fill-opacity="1" fill-rule="nonzero"/><path fill="#db3d44" d="M 140.761719 115.820312 L 120.238281 115.820312 C 120.027344 115.96875 119.820312 116.117188 119.617188 116.273438 L 141.386719 116.273438 C 141.179688 116.117188 140.972656 115.96875 140.761719 115.820312 " fill-opacity="1" fill-rule="nonzero"/><path fill="#db3d44" d="M 142.160156 116.898438 L 118.839844 116.898438 C 118.667969 117.046875 118.496094 117.195312 118.328125 117.351562 L 142.671875 117.351562 C 142.503906 117.195312 142.332031 117.046875 142.160156 116.898438 " fill-opacity="1" fill-rule="nonzero"/><path fill="#db3d44" d="M 139.007812 114.742188 L 121.992188 114.742188 C 121.722656 114.886719 121.460938 115.039062 121.199219 115.195312 L 139.800781 115.195312 C 139.539062 115.039062 139.277344 114.886719 139.007812 114.742188 " fill-opacity="1" fill-rule="nonzero"/><g clip-path="url(#7db4814741)"><path fill="#db3d44" d="M 130.5 112.605469 C 129.148438 112.605469 127.828125 112.757812 126.5625 113.039062 L 134.4375 113.039062 C 133.171875 112.757812 131.851562 112.605469 130.5 112.605469 " fill-opacity="1" fill-rule="nonzero"/></g><path fill="#db3d44" d="M 136.589844 113.664062 L 124.410156 113.664062 C 124.023438 113.804688 123.648438 113.953125 123.273438 114.117188 L 137.726562 114.117188 C 137.351562 113.953125 136.976562 113.804688 136.589844 113.664062 " fill-opacity="1" fill-rule="nonzero"/><path fill="#db3d44" d="M 127.035156 131.367188 L 135.757812 131.367188 L 135.757812 130.914062 L 127.035156 130.914062 Z M 127.035156 131.367188 " fill-opacity="1" fill-rule="nonzero"/><path fill="#db3d44" d="M 127.035156 134.136719 L 127.035156 134.589844 L 130.582031 134.589844 C 130.660156 134.433594 130.753906 134.28125 130.859375 134.136719 L 127.035156 134.136719 " fill-opacity="1" fill-rule="nonzero"/><path fill="#db3d44" d="M 127.035156 135.214844 L 127.035156 135.667969 L 130.308594 135.667969 C 130.3125 135.515625 130.332031 135.363281 130.363281 135.214844 L 127.035156 135.214844 " fill-opacity="1" fill-rule="nonzero"/><path fill="#db3d44" d="M 127.035156 136.292969 L 127.035156 136.746094 L 130.503906 136.746094 C 130.445312 136.597656 130.398438 136.449219 130.363281 136.292969 L 127.035156 136.292969 " fill-opacity="1" fill-rule="nonzero"/><g clip-path="url(#3f49407fcf)"><path fill="#db3d44" d="M 138.375 129.210938 L 148.449219 129.210938 C 148.433594 129.058594 148.421875 128.910156 148.40625 128.757812 L 138.375 128.757812 L 138.375 129.210938 " fill-opacity="1" fill-rule="nonzero"/></g><path fill="#db3d44" d="M 127.035156 133.058594 L 127.035156 133.511719 L 131.46875 133.511719 C 131.679688 133.339844 131.914062 133.1875 132.171875 133.058594 L 127.035156 133.058594 " fill-opacity="1" fill-rule="nonzero"/><path fill="#db3d44" d="M 133.625 138.902344 C 133.097656 138.828125 132.605469 138.671875 132.167969 138.449219 L 127.035156 138.449219 L 127.035156 138.695312 L 127.03125 138.695312 C 127.035156 138.734375 127.035156 138.773438 127.035156 138.8125 C 127.035156 138.84375 127.035156 138.871094 127.035156 138.902344 L 133.625 138.902344 " fill-opacity="1" fill-rule="nonzero"/><g clip-path="url(#1921a4527b)"><path fill="#db3d44" d="M 138.375 130.289062 L 148.5 130.289062 C 148.496094 130.136719 148.492188 129.988281 148.484375 129.835938 L 138.375 129.835938 L 138.375 130.289062 " fill-opacity="1" fill-rule="nonzero"/></g><path fill="#db3d44" d="M 127.035156 137.824219 L 131.265625 137.824219 C 131.113281 137.683594 130.980469 137.53125 130.859375 137.371094 L 127.035156 137.371094 L 127.035156 137.824219 " fill-opacity="1" fill-rule="nonzero"/><path fill="#db3d44" d="M 127.035156 132.433594 L 135.757812 132.433594 L 135.757812 131.980469 L 127.035156 131.980469 Z M 127.035156 132.433594 " fill-opacity="1" fill-rule="nonzero"/><path fill="#db3d44" d="M 135.757812 125.976562 L 135.757812 125.523438 L 131.433594 125.523438 L 130.351562 125.976562 L 135.757812 125.976562 " fill-opacity="1" fill-rule="nonzero"/><path fill="#db3d44" d="M 127.035156 128.132812 L 135.757812 128.132812 L 135.757812 127.679688 L 127.035156 127.679688 Z M 127.035156 128.132812 " fill-opacity="1" fill-rule="nonzero"/><path fill="#db3d44" d="M 135.757812 127.054688 L 135.757812 126.601562 L 128.863281 126.601562 L 127.785156 127.054688 L 135.757812 127.054688 " fill-opacity="1" fill-rule="nonzero"/><path fill="#db3d44" d="M 127.035156 129.210938 L 135.757812 129.210938 L 135.757812 128.757812 L 127.035156 128.757812 Z M 127.035156 129.210938 " fill-opacity="1" fill-rule="nonzero"/><path fill="#db3d44" d="M 135.757812 124.898438 L 135.757812 124.445312 L 134 124.445312 L 132.921875 124.898438 L 135.757812 124.898438 " fill-opacity="1" fill-rule="nonzero"/><path fill="#db3d44" d="M 127.035156 130.289062 L 135.757812 130.289062 L 135.757812 129.835938 L 127.035156 129.835938 Z M 127.035156 130.289062 " fill-opacity="1" fill-rule="nonzero"/><path fill="#db3d44" d="M 135.757812 123.820312 L 135.757812 123.707031 L 135.488281 123.820312 L 135.757812 123.820312 " fill-opacity="1" fill-rule="nonzero"/><path fill="#db3d44" d="M 132 120.132812 L 115.867188 120.132812 C 115.757812 120.28125 115.652344 120.433594 115.550781 120.585938 L 130.855469 120.585938 L 131.996094 120.132812 " fill-opacity="1" fill-rule="nonzero"/><g clip-path="url(#932e766ded)"><path fill="#db3d44" d="M 124.417969 126.601562 L 112.949219 126.601562 C 112.914062 126.753906 112.882812 126.902344 112.851562 127.054688 L 124.417969 127.054688 L 124.417969 126.601562 " fill-opacity="1" fill-rule="nonzero"/></g><path fill="#db3d44" d="M 118.753906 144.292969 L 142.246094 144.292969 C 142.417969 144.144531 142.585938 143.996094 142.75 143.839844 L 118.25 143.839844 C 118.414062 143.996094 118.582031 144.144531 118.753906 144.292969 " fill-opacity="1" fill-rule="nonzero"/><g clip-path="url(#b209a77335)"><path fill="#db3d44" d="M 129.117188 148.605469 L 131.882812 148.605469 C 132.863281 148.53125 133.820312 148.378906 134.75 148.152344 L 126.25 148.152344 C 127.179688 148.378906 128.136719 148.53125 129.117188 148.605469 " fill-opacity="1" fill-rule="nonzero"/></g><path fill="#db3d44" d="M 117.609375 143.214844 L 143.390625 143.214844 C 143.535156 143.066406 143.675781 142.914062 143.816406 142.761719 L 117.183594 142.761719 C 117.324219 142.914062 117.464844 143.066406 117.609375 143.214844 " fill-opacity="1" fill-rule="nonzero"/><path fill="#db3d44" d="M 125.871094 141.058594 L 145.1875 141.058594 C 145.292969 140.910156 145.394531 140.757812 145.496094 140.605469 L 126.34375 140.605469 C 126.203125 140.769531 126.042969 140.917969 125.871094 141.058594 " fill-opacity="1" fill-rule="nonzero"/><path fill="#db3d44" d="M 124.210938 147.527344 L 136.789062 147.527344 C 137.160156 147.386719 137.527344 147.238281 137.886719 147.074219 L 123.113281 147.074219 C 123.472656 147.238281 123.839844 147.386719 124.210938 147.527344 " fill-opacity="1" fill-rule="nonzero"/><path fill="#db3d44" d="M 126.757812 139.980469 L 145.894531 139.980469 C 145.984375 139.832031 146.074219 139.679688 146.160156 139.527344 L 126.933594 139.527344 C 126.890625 139.683594 126.828125 139.835938 126.757812 139.980469 " fill-opacity="1" fill-rule="nonzero"/><path fill="#db3d44" d="M 121.859375 146.449219 L 139.140625 146.449219 C 139.40625 146.304688 139.664062 146.152344 139.917969 145.996094 L 121.082031 145.996094 C 121.335938 146.152344 121.59375 146.304688 121.859375 146.449219 " fill-opacity="1" fill-rule="nonzero"/><path fill="#db3d44" d="M 120.132812 145.371094 L 140.867188 145.371094 C 141.074219 145.226562 141.277344 145.074219 141.480469 144.917969 L 119.519531 144.917969 C 119.722656 145.074219 119.925781 145.226562 120.132812 145.371094 " fill-opacity="1" fill-rule="nonzero"/><path fill="#db3d44" d="M 123 142.011719 C 122.363281 142.011719 121.761719 141.894531 121.226562 141.683594 L 116.277344 141.683594 C 116.394531 141.835938 116.515625 141.988281 116.640625 142.136719 L 144.359375 142.136719 C 144.484375 141.988281 144.605469 141.835938 144.722656 141.683594 L 124.777344 141.683594 C 124.242188 141.894531 123.640625 142.011719 123 142.011719 " fill-opacity="1" fill-rule="nonzero"/><path fill="#db3d44" d="M 135.058594 138.902344 L 146.5 138.902344 C 146.578125 138.753906 146.652344 138.601562 146.726562 138.449219 L 136.515625 138.449219 C 136.078125 138.671875 135.585938 138.828125 135.058594 138.902344 " fill-opacity="1" fill-rule="nonzero"/><g clip-path="url(#9514340d38)"><path fill="#db3d44" d="M 138.375 134.589844 L 148.066406 134.589844 C 148.101562 134.441406 148.132812 134.289062 148.160156 134.136719 L 138.375 134.136719 L 138.375 134.589844 " fill-opacity="1" fill-rule="nonzero"/></g><g clip-path="url(#7e1fce02a2)"><path fill="#db3d44" d="M 138.375 132.433594 L 148.414062 132.433594 C 148.429688 132.285156 148.441406 132.132812 148.453125 131.980469 L 138.375 131.980469 L 138.375 132.433594 " fill-opacity="1" fill-rule="nonzero"/></g><g clip-path="url(#a589312356)"><path fill="#db3d44" d="M 138.375 130.914062 L 138.375 131.367188 L 148.488281 131.367188 C 148.492188 131.214844 148.496094 131.066406 148.5 130.914062 L 138.375 130.914062 " fill-opacity="1" fill-rule="nonzero"/></g><g clip-path="url(#0c94a27a78)"><path fill="#db3d44" d="M 138.375 133.511719 L 148.273438 133.511719 C 148.296875 133.363281 148.320312 133.210938 148.339844 133.058594 L 138.375 133.058594 L 138.375 133.511719 " fill-opacity="1" fill-rule="nonzero"/></g><path fill="#db3d44" d="M 138.375 135.636719 L 138.371094 135.636719 C 138.371094 135.648438 138.371094 135.65625 138.375 135.667969 L 147.789062 135.667969 C 147.835938 135.519531 147.875 135.367188 147.914062 135.214844 L 138.375 135.214844 L 138.375 135.636719 " fill-opacity="1" fill-rule="nonzero"/><path fill="#db3d44" d="M 137.417969 137.824219 L 147.011719 137.824219 C 147.078125 137.675781 147.140625 137.523438 147.203125 137.371094 L 137.824219 137.371094 C 137.703125 137.53125 137.566406 137.683594 137.417969 137.824219 " fill-opacity="1" fill-rule="nonzero"/><path fill="#db3d44" d="M 138.175781 136.746094 L 147.441406 136.746094 C 147.496094 136.597656 147.546875 136.445312 147.597656 136.292969 L 138.320312 136.292969 C 138.285156 136.449219 138.238281 136.597656 138.175781 136.746094 " fill-opacity="1" fill-rule="nonzero"/><g clip-path="url(#1b985d98f0)"><path fill="#db3d44" d="M 124.417969 131.980469 L 112.546875 131.980469 C 112.558594 132.132812 112.570312 132.285156 112.585938 132.433594 L 124.417969 132.433594 L 124.417969 131.980469 " fill-opacity="1" fill-rule="nonzero"/></g><g clip-path="url(#0f725f2dba)"><path fill="#db3d44" d="M 124.417969 127.679688 L 112.738281 127.679688 C 112.714844 127.828125 112.691406 127.980469 112.667969 128.132812 L 124.417969 128.132812 L 124.417969 127.679688 " fill-opacity="1" fill-rule="nonzero"/></g><g clip-path="url(#20e7a0e9e3)"><path fill="#db3d44" d="M 124.417969 130.914062 L 112.5 130.914062 C 112.503906 131.066406 112.507812 131.214844 112.511719 131.367188 L 124.417969 131.367188 L 124.417969 130.914062 " fill-opacity="1" fill-rule="nonzero"/></g><g clip-path="url(#3f3a3953c0)"><path fill="#db3d44" d="M 124.417969 128.757812 L 112.59375 128.757812 C 112.578125 128.910156 112.566406 129.058594 112.554688 129.210938 L 124.417969 129.210938 L 124.417969 128.757812 " fill-opacity="1" fill-rule="nonzero"/></g><g clip-path="url(#4c9a3c2a98)"><path fill="#db3d44" d="M 124.417969 129.835938 L 112.515625 129.835938 C 112.507812 129.988281 112.503906 130.136719 112.5 130.289062 L 124.417969 130.289062 L 124.417969 129.835938 " fill-opacity="1" fill-rule="nonzero"/></g><path fill="#db3d44" d="M 124.417969 125.523438 L 113.230469 125.523438 C 113.1875 125.671875 113.144531 125.824219 113.105469 125.976562 L 124.417969 125.976562 L 124.417969 125.523438 " fill-opacity="1" fill-rule="nonzero"/><path fill="#db3d44" d="M 124.417969 124.445312 L 113.585938 124.445312 C 113.53125 124.59375 113.480469 124.746094 113.429688 124.898438 L 124.417969 124.898438 L 124.417969 124.445312 " fill-opacity="1" fill-rule="nonzero"/><path fill="#db3d44" d="M 126.566406 122.289062 L 114.539062 122.289062 C 114.460938 122.4375 114.382812 122.589844 114.308594 122.742188 L 125.421875 122.742188 L 126.5625 122.289062 " fill-opacity="1" fill-rule="nonzero"/><path fill="#db3d44" d="M 124.417969 123.367188 L 114.019531 123.367188 C 113.953125 123.519531 113.890625 123.667969 113.828125 123.820312 L 124.417969 123.820312 L 124.417969 123.367188 " fill-opacity="1" fill-rule="nonzero"/><path fill="#db3d44" d="M 129.28125 121.210938 L 115.148438 121.210938 C 115.058594 121.359375 114.96875 121.511719 114.878906 121.664062 L 128.140625 121.664062 L 129.28125 121.210938 " fill-opacity="1" fill-rule="nonzero"/><path fill="#db3d44" d="M 120.515625 136.292969 L 113.402344 136.292969 C 113.453125 136.445312 113.507812 136.597656 113.558594 136.746094 L 119.921875 136.746094 C 120.101562 136.582031 120.300781 136.429688 120.515625 136.292969 " fill-opacity="1" fill-rule="nonzero"/><path fill="#db3d44" d="M 119.398438 137.371094 L 113.796875 137.371094 C 113.859375 137.523438 113.921875 137.675781 113.988281 137.824219 L 119.164062 137.824219 C 119.226562 137.667969 119.308594 137.515625 119.398438 137.371094 " fill-opacity="1" fill-rule="nonzero"/><path fill="#db3d44" d="M 118.96875 138.8125 C 118.96875 138.6875 118.976562 138.570312 118.992188 138.449219 L 114.273438 138.449219 C 114.347656 138.601562 114.421875 138.753906 114.5 138.902344 L 118.96875 138.902344 C 118.96875 138.871094 118.96875 138.84375 118.96875 138.8125 " fill-opacity="1" fill-rule="nonzero"/><path fill="#db3d44" d="M 119.660156 140.605469 L 115.503906 140.605469 C 115.605469 140.757812 115.707031 140.910156 115.8125 141.058594 L 120.132812 141.058594 C 119.957031 140.917969 119.800781 140.769531 119.660156 140.605469 " fill-opacity="1" fill-rule="nonzero"/><path fill="#db3d44" d="M 119.070312 139.527344 L 114.839844 139.527344 C 114.925781 139.679688 115.015625 139.832031 115.105469 139.980469 L 119.246094 139.980469 C 119.171875 139.835938 119.113281 139.683594 119.070312 139.527344 " fill-opacity="1" fill-rule="nonzero"/><g clip-path="url(#79a2c0dcda)"><path fill="#db3d44" d="M 124.417969 133.058594 L 112.660156 133.058594 C 112.679688 133.210938 112.703125 133.363281 112.726562 133.511719 L 124.417969 133.511719 L 124.417969 133.058594 " fill-opacity="1" fill-rule="nonzero"/></g><path fill="#db3d44" d="M 123 135.613281 C 123.253906 135.613281 123.5 135.632812 123.738281 135.667969 L 124.417969 135.667969 L 124.417969 135.214844 L 113.085938 135.214844 C 113.125 135.367188 113.167969 135.519531 113.210938 135.667969 L 122.265625 135.667969 C 122.503906 135.632812 122.75 135.613281 123 135.613281 " fill-opacity="1" fill-rule="nonzero"/><g clip-path="url(#25cc65b3b9)"><path fill="#db3d44" d="M 124.417969 134.136719 L 112.839844 134.136719 C 112.867188 134.289062 112.898438 134.441406 112.933594 134.589844 L 124.417969 134.589844 L 124.417969 134.136719 " fill-opacity="1" fill-rule="nonzero"/></g></svg>